<?xml version="1.0" encoding="UTF-8" standalone="no"?>
<svg
   height="24"
   viewBox="0 -960 960 960"
   width="24"
   version="1.1"
   id="svg4"
   xmlns="http://www.w3.org/2000/svg"
   xmlns:svg="http://www.w3.org/2000/svg">
  <defs
     id="defs8" />
  <path
     style="fill:#000000;stroke-width:0.2;stroke-miterlimit:4;stroke-dasharray:none;paint-order:markers fill stroke;stroke:#000000;stroke-opacity:1;fill-opacity:1"
     d="M 11.403107,21.97186 C 8.540524,21.803005 5.812533,20.336048 4.0521301,18.018927 2.9854655,16.614936 2.3226518,14.995173 2.081957,13.20428 2.0234113,12.76867 2.0146339,11.357172 2.0677749,10.923658 2.2158936,9.7153349 2.5105055,8.7262029 3.0350606,7.6760869 4.137029,5.4700371 5.9195398,3.8050205 8.2434682,2.8109908 9.1492885,2.4235381 10.099342,2.1766211 11.080933,2.0735395 c 2.883135,-0.3027722 5.724361,0.563402 7.839994,2.3900948 1.344412,1.1608009 2.378809,2.8069646 2.797196,4.4515222 0.207087,0.8140018 0.2718,1.4168625 0.251152,2.3397035 -0.02535,1.132818 -0.191248,1.879622 -0.602902,2.713946 -0.363298,0.736319 -0.852355,1.307609 -1.57211,1.836453 -0.798544,0.586736 -1.749608,0.964616 -2.819183,1.120128 -0.237948,0.0346 -0.559289,0.04533 -1.593843,0.05325 -0.724903,0.0055 -1.336455,0.02103 -1.388067,0.03514 -0.121748,0.03329 -0.195376,0.115854 -0.234777,0.263275 -0.05791,0.216674 0.04537,0.509801 0.348751,0.989834 0.328046,0.519058 0.435613,1.052025 0.351256,1.740388 -0.05578,0.455173 -0.224506,0.887904 -0.4574,1.173091 -0.334816,0.409996 -0.922412,0.699708 -1.586483,0.782211 -0.202738,0.02519 -0.669233,0.02947 -1.01141,0.0093 z m 0.764527,-1.980238 c 0.448962,-0.122637 0.45696,-0.601839 0.02017,-1.208596 -0.302881,-0.420739 -0.420135,-0.823741 -0.421357,-1.448204 -0.0012,-0.637772 0.179852,-1.135652 0.559456,-1.538053 0.372895,-0.395288 0.918167,-0.673431 1.470913,-0.750311 0.118139,-0.01643 0.648999,-0.02808 1.281781,-0.02814 0.594068,-5.2e-5 1.21424,-0.01237 1.37816,-0.02738 0.93778,-0.08589 1.720713,-0.399621 2.400828,-0.962038 0.581699,-0.481033 0.954326,-1.206734 1.102085,-2.146343 0.04574,-0.290853 0.04631,-1.432827 8.79e-4,-1.74934 C 19.836501,9.2690465 19.604787,8.5525033 19.226615,7.8636346 18.470688,6.4866588 17.021675,5.24076 15.420111,4.5907046 13.811114,3.9376322 11.83258,3.8069926 10.087677,4.2386121 8.6274603,4.5998118 7.4050304,5.3029847 6.2846567,6.4262071 5.6149418,7.0976249 5.1573813,7.7305383 4.7663259,8.5264142 4.2046471,9.6695428 3.9627699,10.83729 3.9986947,12.232424 c 0.015592,0.605531 0.057432,0.99105 0.1645383,1.516095 0.3523328,1.727169 1.3546147,3.328387 2.8341282,4.527725 1.2829154,1.039971 2.749462,1.609817 4.4173518,1.716421 0.47326,0.03025 0.639207,0.03002 0.752921,-10e-4 z"
     id="path1522"
     transform="matrix(40,0,0,40,0,-960)" />
  <path
     style="fill:#ff7f2a;stroke-width:0;stroke-miterlimit:4;stroke-dasharray:none;stroke:#000000;stroke-opacity:1"
     d="M 11.33913,19.958283 C 9.1108111,19.78499 7.2563796,18.788686 5.7166615,16.937578 5.0491196,16.135034 4.4382661,14.870106 4.2134097,13.824713 4.0266723,12.956541 3.97674,11.783526 4.0892409,10.907727 4.3025525,9.247137 5.0137733,7.7937551 6.2249014,6.5434986 7.8443252,4.8717552 9.8666487,4.0180649 12.208696,4.0175392 c 2.230492,-5.006e-4 4.206738,0.7877602 5.750932,2.293861 0.666183,0.6497496 1.026338,1.1364174 1.378339,1.8625128 0.442254,0.9122665 0.625544,1.7467378 0.626473,2.852174 0.0011,1.321918 -0.303489,2.1803 -1.012105,2.852174 -0.526955,0.499631 -1.160256,0.826275 -1.961031,1.011462 -0.192375,0.04449 -0.557393,0.06186 -1.73913,0.08277 -1.691968,0.02994 -1.787095,0.04295 -2.312469,0.316279 -0.889548,0.462794 -1.306911,1.304234 -1.18566,2.390396 0.05174,0.463508 0.157774,0.776174 0.359053,1.05878 0.333409,0.468123 0.430511,0.776869 0.314877,1.001181 -0.117293,0.22753 -0.358044,0.275986 -1.088845,0.219153 z M 6.8571819,12.975897 C 7.1406194,12.915821 7.3077188,12.832773 7.5177659,12.647589 7.8754,12.332287 8.0151266,11.969407 7.9944083,11.409717 7.982328,11.083366 7.9707704,11.033309 7.8520313,10.793056 7.6960264,10.477402 7.4936438,10.279743 7.1714647,10.128375 6.9695271,10.0335 6.8930757,10.017467 6.5871152,10.005831 6.0355726,9.9848553 5.6836287,10.118725 5.356068,10.474086 4.9678061,10.895301 4.8722415,11.618102 5.1301646,12.182701 5.235371,12.413 5.5120699,12.707844 5.7387942,12.831242 c 0.1874557,0.102027 0.5233179,0.187983 0.7481623,0.191476 0.076522,0.0012 0.2431232,-0.01988 0.3702254,-0.04682 z m 10.9960491,-9.91e-4 c 0.129712,-0.02749 0.313794,-0.0924 0.409072,-0.144259 0.225733,-0.12286 0.502509,-0.418046 0.607532,-0.647945 0.257924,-0.564599 0.162359,-1.2874 -0.225903,-1.708614 -0.327561,-0.355362 -0.679505,-0.4892313 -1.231047,-0.468256 -0.305961,0.01164 -0.382412,0.02767 -0.58435,0.122545 -0.322179,0.151368 -0.524561,0.349026 -0.680566,0.664681 -0.118739,0.240252 -0.130297,0.290309 -0.142377,0.616661 -0.02072,0.55969 0.119008,0.922569 0.476642,1.237871 0.205837,0.181473 0.378066,0.268807 0.644331,0.326728 0.279907,0.06089 0.441477,0.06102 0.726666,5.88e-4 z m -8,-3.9999999 C 9.982943,8.9474198 10.167025,8.8825033 10.262303,8.8306466 10.488036,8.7077875 10.764812,8.4126007 10.869835,8.1827019 11.127759,7.618103 11.032194,6.895302 10.643932,6.4740876 10.316371,6.1187262 9.9644275,5.9848568 9.4128849,6.0058325 9.1077398,6.0174374 9.0307666,6.0335031 8.8347826,6.1264926 8.50488,6.2830234 8.3037843,6.4777859 8.1492772,6.79041 8.0290723,7.033628 8.0176988,7.0826509 8.0055917,7.4097184 7.9848734,7.9694087 8.1246,8.332288 8.4822341,8.6475903 8.688071,8.829063 8.8603002,8.9163969 9.1265652,8.9743183 9.406472,9.035207 9.5680421,9.0353374 9.853231,8.9749061 Z m 5.003951,9.913e-4 C 15.140619,8.9158212 15.307719,8.8327732 15.517766,8.6475889 15.8754,8.3322866 16.015127,7.9694073 15.994408,7.409717 15.982328,7.0833657 15.97077,7.0333089 15.852031,6.7930564 15.696026,6.4774021 15.493644,6.2797434 15.171465,6.1283752 14.969527,6.0334997 14.893076,6.017467 14.587115,6.0058311 c -0.551542,-0.020976 -0.903486,0.1128937 -1.231047,0.4682551 -0.388262,0.4212144 -0.483827,1.1440154 -0.225903,1.7086143 0.105206,0.2302992 0.381905,0.5251433 0.608629,0.6485419 0.187456,0.1020265 0.523318,0.1879826 0.748163,0.1914755 0.07652,0.00119 0.243123,-0.019881 0.370225,-0.046821 z"
     id="path123"
     transform="matrix(40,0,0,40,0,-960)" />
  <path
     style="fill:#0000ff;stroke-width:0.2;stroke-miterlimit:4;stroke-dasharray:none;stroke:#0000ff;stroke-opacity:1"
     d="m 17.182609,12.953115 c -0.417056,-0.08145 -0.850534,-0.425411 -1.036665,-0.822588 -0.08617,-0.183866 -0.09377,-0.235351 -0.09377,-0.634875 0,-0.410258 0.0058,-0.446554 0.102016,-0.643478 0.13042,-0.266802 0.431182,-0.567564 0.697984,-0.697984 0.196981,-0.09629 0.233143,-0.102016 0.64421,-0.102016 0.420606,0 0.443334,0.0038 0.663981,0.112474 0.572423,0.281803 0.907326,0.932086 0.803311,1.559797 -0.142512,0.860031 -0.920508,1.396732 -1.781067,1.22867 z"
     id="path310"
     transform="matrix(40,0,0,40,0,-960)" />
  <path
     style="fill:#ff0000;stroke-width:0.2;stroke-miterlimit:4;stroke-dasharray:none;stroke:#ff0000;stroke-opacity:1"
     d="M 14.195072,8.9536833 C 13.945774,8.9047239 13.628596,8.7361476 13.450286,8.5578376 12.738557,7.8461085 12.940066,6.6075044 13.839635,6.1646479 c 0.220647,-0.1086239 0.243375,-0.112474 0.663981,-0.112474 0.411067,0 0.447229,0.00573 0.64421,0.102016 0.266802,0.1304198 0.567564,0.4311823 0.697984,0.697984 0.09626,0.1969239 0.102016,0.2332202 0.102016,0.6434783 0,0.3995234 -0.0076,0.4510093 -0.09377,0.6348745 -0.287396,0.6132634 -0.979395,0.95662 -1.658984,0.8231566 z"
     id="path386"
     transform="matrix(40,0,0,40,0,-960)" />
  <path
     style="fill:#00ff00;stroke-width:0.2;stroke-miterlimit:4;stroke-dasharray:none;stroke:#00ff00;stroke-opacity:1"
     d="M 9.1826087,8.9531147 C 8.7655528,8.8716663 8.3320747,8.5277037 8.1459439,8.1305267 8.0597783,7.9466615 8.0521739,7.8951756 8.0521739,7.4956522 c 0,-0.4102581 0.00575,-0.4465544 0.102016,-0.6434783 0.1304198,-0.2668017 0.4311823,-0.5675642 0.697984,-0.697984 0.1969808,-0.09629 0.2331427,-0.102016 0.6442096,-0.102016 0.4206061,0 0.4433347,0.00385 0.6639815,0.112474 0.731027,0.3598836 1.022895,1.2394857 0.664724,2.0032754 -0.277858,0.5925241 -0.9597801,0.9185184 -1.6424803,0.7851914 z"
     id="path536"
     transform="matrix(40,0,0,40,0,-960)" />
  <path
     style="fill:#ffff00;stroke-width:0.2;stroke-miterlimit:4;stroke-dasharray:none;stroke:#ffff00;stroke-opacity:1"
     d="M 6.1950723,12.953683 C 5.9457735,12.904724 5.6285961,12.736148 5.4502862,12.557838 4.738557,11.846108 4.940066,10.607504 5.8396353,10.164648 c 0.2206465,-0.108624 0.2433751,-0.112474 0.6639812,-0.112474 0.4110669,0 0.4472288,0.0057 0.6442096,0.102016 0.2668017,0.13042 0.5675642,0.431182 0.697984,0.697984 0.096262,0.196924 0.102016,0.23322 0.102016,0.643478 0,0.399524 -0.0076,0.451009 -0.09377,0.634875 -0.2873963,0.613263 -0.9793948,0.95662 -1.6589838,0.823156 z"
     id="path612"
     transform="matrix(40,0,0,40,0,-960)" />
</svg>
